<svg xmlns="http://www.w3.org/2000/svg" xmlns:xlink="http://www.w3.org/1999/xlink" width="210" height="163" viewBox="0 0 210 163">
  <defs>
    <clipPath id="clip-path">
      <rect id="Rectangle_1278" data-name="Rectangle 1278" width="210" height="163" transform="translate(128 1492)" fill="#fff" stroke="#707070" stroke-width="1"/>
    </clipPath>
  </defs>
  <g id="Mask_Group_11" data-name="Mask Group 11" transform="translate(-128 -1492)" clip-path="url(#clip-path)">
    <g id="Group_2872" data-name="Group 2872" transform="translate(-875.217 -27)">
      <g id="Group_2795" data-name="Group 2795" transform="translate(1017.217 1533)" opacity="0.5">
        <path id="Path_6672" data-name="Path 6672" d="M1105.191,756.8l-27.018-9.051a11.388,11.388,0,0,1-4.9-18.362l.938-1.056a11.388,11.388,0,0,1,18.811,2.7Z" transform="translate(-1034.223 -720.937)" fill="#9c004d" opacity="0.29"/>
        <path id="Path_6673" data-name="Path 6673" d="M1125.562,757.395l4.588-28.121a11.388,11.388,0,0,1,17.336-7.785l1.193.756a11.388,11.388,0,0,1,.357,19Z" transform="translate(-1048.348 -719.709)" fill="#9c004d" opacity="0.29"/>
        <path id="Path_6674" data-name="Path 6674" d="M1157.066,845.494a14.281,14.281,0,0,1-14.241,14.32h-106.81a14.281,14.281,0,0,1-14.242-14.32V777.611a14.281,14.281,0,0,1,14.242-14.32h106.81a14.274,14.274,0,0,1,14.169,12.856c.048.481.073,68.854.073,69.348" transform="translate(-1021.773 -730.868)" fill="#9c004d" opacity="0.29"/>
      </g>
      <g id="Group_2794" data-name="Group 2794" transform="translate(1026.427 1537.125)">
        <g id="Group_2792" data-name="Group 2792">
          <path id="Path_6675" data-name="Path 6675" d="M1169.446,853.632a14.281,14.281,0,0,1-14.241,14.32H1048.394a14.28,14.28,0,0,1-14.241-14.32V785.749a14.28,14.28,0,0,1,14.241-14.32H1155.2a14.281,14.281,0,0,1,14.241,14.32V816.62" transform="translate(-1034.153 -737.077)" fill="none" stroke="#060706" stroke-linecap="round" stroke-miterlimit="10" stroke-width="2.268"/>
          <path id="Path_6676" data-name="Path 6676" d="M1113.006,759.606l-26.026-11.6a11.388,11.388,0,0,1-3.114-18.747l1.035-.961a11.388,11.388,0,0,1,18.465,4.492Z" transform="translate(-1045.949 -725.254)" fill="none" stroke="#060706" stroke-linejoin="bevel" stroke-width="2.268"/>
          <path id="Path_6677" data-name="Path 6677" d="M1124.8,759.871l10.626-26.437a11.387,11.387,0,0,1,18.618-3.806l1,1a11.388,11.388,0,0,1-3.806,18.619Z" transform="translate(-1057.363 -725.519)" fill="none" stroke="#060706" stroke-linejoin="bevel" stroke-width="2.268"/>
          <path id="Path_6678" data-name="Path 6678" d="M1146.307,807.51s.531-26.252-24.13-34.207-46.14,9.546-50.383,50.117" transform="translate(-1043.791 -737.077)" fill="none" stroke="#060706" stroke-miterlimit="10" stroke-width="2.268"/>
          <line id="Line_1056" data-name="Line 1056" y2="95.603" transform="translate(67.647 34.352)" fill="none" stroke="#060706" stroke-miterlimit="10" stroke-width="2.268"/>
        </g>
        <g id="Group_2793" data-name="Group 2793" transform="translate(97.442 55.383)">
          <path id="Path_6679" data-name="Path 6679" d="M1231.234,815.948l-29.572,36.8c-.035.042-.071.085-.107.126a9.258,9.258,0,0,1-6.576,3.1c-.129.005-.258.007-.387.007a9.249,9.249,0,0,1-6.417-2.568l-23.044-22.088" transform="translate(-1165.131 -803.859)" fill="none" stroke="#060706" stroke-linecap="round" stroke-miterlimit="10" stroke-width="2.268"/>
          <path id="Path_6680" data-name="Path 6680" d="M1265.137,799.7l-5.091,6.336" transform="translate(-1189.434 -799.698)" fill="none" stroke="#060706" stroke-linecap="round" stroke-miterlimit="10" stroke-width="2.268"/>
        </g>
      </g>
    </g>
  </g>
</svg>
