<svg xmlns="http://www.w3.org/2000/svg" xmlns:xlink="http://www.w3.org/1999/xlink" width="210" height="163" viewBox="0 0 210 163">
  <defs>
    <clipPath id="clip-path">
      <rect id="Rectangle_1279" data-name="Rectangle 1279" width="210" height="163" transform="translate(742 1492)" fill="#fff" stroke="#707070" stroke-width="1"/>
    </clipPath>
  </defs>
  <g id="Mask_Group_9" data-name="Mask Group 9" transform="translate(-742 -1492)" clip-path="url(#clip-path)">
    <g id="Group_2870" data-name="Group 2870" transform="translate(352.189 -33.824)">
      <g id="Group_2797" data-name="Group 2797" transform="translate(402.811 1538.824)" opacity="0.5">
        <path id="Path_6645" data-name="Path 6645" d="M489.614,765,462.2,755.817a11.557,11.557,0,0,1-4.968-18.635l.951-1.071a11.557,11.557,0,0,1,19.09,2.743Z" transform="translate(-418.868 -727.174)" fill="#9c004d" opacity="0.29"/>
        <path id="Path_6646" data-name="Path 6646" d="M511.156,763.777l4.656-28.537a11.557,11.557,0,0,1,17.593-7.9l1.21.767a11.557,11.557,0,0,1,.363,19.282Z" transform="translate(-432.798 -725.533)" fill="#9c004d" opacity="0.29"/>
        <path id="Path_6647" data-name="Path 6647" d="M544.665,852.536a14.493,14.493,0,0,1-14.452,14.532H421.82a14.493,14.493,0,0,1-14.452-14.532V783.647a14.493,14.493,0,0,1,14.452-14.532H530.213a14.484,14.484,0,0,1,14.378,13.046c.049.488.075,69.874.075,70.375" transform="translate(-407.367 -736.212)" fill="#9c004d" opacity="0.29"/>
      </g>
      <g id="Group_2784" data-name="Group 2784" transform="translate(411.39 1543.01)">
        <g id="Group_2782" data-name="Group 2782">
          <path id="Path_6648" data-name="Path 6648" d="M556.029,860.674a14.493,14.493,0,0,1-14.453,14.532H433.184a14.493,14.493,0,0,1-14.453-14.532V791.785a14.492,14.492,0,0,1,14.453-14.532H541.577a14.492,14.492,0,0,1,14.453,14.532" transform="translate(-418.731 -742.392)" fill="none" stroke="#060706" stroke-linecap="round" stroke-miterlimit="10" stroke-width="2.268"/>
          <path id="Path_6649" data-name="Path 6649" d="M498.069,765.939,471.658,754.17a11.557,11.557,0,0,1-3.16-19.025l1.05-.975a11.557,11.557,0,0,1,18.739,4.559Z" transform="translate(-430.02 -731.078)" fill="none" stroke="#060706" stroke-linejoin="bevel" stroke-width="2.268"/>
          <path id="Path_6650" data-name="Path 6650" d="M509.377,766.193l10.783-26.83a11.557,11.557,0,0,1,18.895-3.862l1.013,1.013a11.557,11.557,0,0,1-3.862,18.895Z" transform="translate(-440.942 -731.331)" fill="none" stroke="#060706" stroke-linejoin="bevel" stroke-width="2.268"/>
          <path id="Path_6651" data-name="Path 6651" d="M532.341,813.869s.538-26.641-24.488-34.714-46.823,9.687-51.128,50.86" transform="translate(-428.04 -742.392)" fill="none" stroke="#060706" stroke-linecap="round" stroke-miterlimit="10" stroke-width="2.268"/>
          <line id="Line_1048" data-name="Line 1048" y2="97.02" transform="translate(68.649 34.861)" fill="none" stroke="#060706" stroke-miterlimit="10" stroke-width="2.268"/>
        </g>
        <g id="Group_2783" data-name="Group 2783" transform="translate(103.893 58.194)">
          <path id="Path_6652" data-name="Path 6652" d="M608.53,835.448a16.035,16.035,0,1,0-16.036,16.035A16.054,16.054,0,0,0,608.53,835.448Zm18.011,6.14a11.261,11.261,0,0,0,0-12.281,54.384,54.384,0,0,0-12.569-13.312c-6.954-5.2-14.207-7.836-21.556-7.836s-14.6,2.629-21.575,7.815a54.757,54.757,0,0,0-12.647,13.294,11.236,11.236,0,0,0,0,12.36,54.769,54.769,0,0,0,12.647,13.294c6.977,5.185,14.236,7.815,21.575,7.815,11.3,0,20.384-6.3,26.016-11.585" transform="translate(-556.342 -808.159)" fill="none" stroke="#1a1818" stroke-linecap="round" stroke-miterlimit="10" stroke-width="2.268"/>
          <path id="Path_6653" data-name="Path 6653" d="M601.764,832.924a7.008,7.008,0,0,0-7.008,7.008" transform="translate(-565.754 -814.227)" fill="none" stroke="#1a1818" stroke-linecap="round" stroke-miterlimit="10" stroke-width="2.268"/>
        </g>
      </g>
    </g>
  </g>
</svg>
