<svg width="43" height="40" viewBox="0 0 43 40" fill="none" xmlns="http://www.w3.org/2000/svg">
<g clip-path="url(#clip0_548_555)">
<path d="M42.9978 7.09688C43.0157 6.08604 42.8838 5.05972 42.5249 4.09865C42.5238 4.09423 42.5205 4.09091 42.5193 4.08649C42.3416 3.33002 42.004 2.59788 41.4942 1.99403C40.9586 1.34705 40.2442 0.861537 39.4762 0.548553C38.7059 0.234463 37.8864 0.078524 37.0703 0.0232265C36.253 -0.032071 35.4369 0.012167 34.6331 0.116126C33.8281 0.21898 33.0355 0.387084 32.2562 0.593897C32.1478 0.622651 32.0829 0.73214 32.1109 0.840524C32.1388 0.948907 32.2506 1.01416 32.3602 0.986509H32.3613C33.1283 0.790756 33.9041 0.633711 34.6879 0.539705C35.4704 0.445699 36.2586 0.410309 37.0379 0.47003C37.816 0.529752 38.5852 0.685691 39.294 0.980979C39.9994 1.27627 40.6389 1.72086 41.1129 2.3048C41.5925 2.88432 41.9022 3.58992 42.0498 4.33311C42.2007 5.07631 42.2041 5.85158 42.118 6.6169C42.0744 6.99956 42.0107 7.38111 41.9291 7.76045C41.8452 8.13869 41.7446 8.51471 41.6328 8.88742C41.5188 9.26012 41.3902 9.6284 41.2527 9.99337C41.1118 10.3572 40.9653 10.72 40.8044 11.0772C40.166 12.5072 39.3879 13.8786 38.5293 15.198C38.4007 15.3959 38.2699 15.5917 38.138 15.7874L36.7416 16.5152C36.5728 16.6036 36.5795 16.8447 36.7539 16.9232L37.1977 17.1223C36.7259 17.7638 36.2363 18.3942 35.7332 19.0124C33.7364 21.4599 31.5172 23.7293 29.1549 25.8361C26.7915 27.9429 24.2794 29.885 21.6242 31.6092C20.296 32.4696 18.9321 33.2747 17.5301 34.0058C16.1293 34.7357 14.6904 35.3948 13.2158 35.9456C11.7412 36.4919 10.2263 36.9398 8.69018 37.1809C7.92213 37.3015 7.1496 37.3667 6.38601 37.3557C5.62355 37.3402 4.86779 37.244 4.16569 37.0206C3.46471 36.7983 2.82411 36.4422 2.32437 35.9445C1.82351 35.4479 1.47023 34.8197 1.27681 34.1285C1.08005 33.4373 1.03197 32.693 1.07781 31.9487C1.12365 31.2022 1.26452 30.4534 1.46016 29.7158L1.46128 29.7136L1.4624 29.7091C1.53619 29.4216 1.35954 29.1307 1.06887 29.0577C0.778191 28.9847 0.484161 29.1595 0.410374 29.447C0.208018 30.2411 0.0593258 31.0562 0.0157244 31.8901C-0.0278771 32.7229 0.0302582 33.58 0.273979 34.4127C0.336587 34.6207 0.408138 34.8253 0.493105 35.0276C0.57919 35.2289 0.677573 35.4258 0.788253 35.616C1.01073 35.9965 1.28464 36.3515 1.60215 36.66C2.23828 37.2827 3.03876 37.7107 3.86048 37.9628C4.68556 38.2172 5.53523 38.3145 6.36924 38.3234C7.2055 38.3289 8.03057 38.2504 8.84111 38.1166C10.4633 37.8467 12.0263 37.3678 13.54 36.7927C15.0538 36.2132 16.5172 35.5253 17.9393 34.7689C19.3614 34.0113 20.7398 33.1807 22.0803 32.296C24.759 30.5231 27.2857 28.5357 29.6558 26.3847C32.0248 24.2336 34.2485 21.9188 36.2486 19.4227C36.7505 18.7967 37.2369 18.1586 37.7064 17.5083L37.977 17.7947C38.1078 17.933 38.3414 17.8622 38.3716 17.6753L38.6097 16.2055C38.7584 15.9821 38.9071 15.7576 39.0514 15.5298C39.9122 14.1816 40.6926 12.7781 41.3332 11.3061C41.4942 10.939 41.6417 10.5651 41.7837 10.1891C41.9212 9.81199 42.0509 9.43044 42.1649 9.04446C42.2779 8.65848 42.3785 8.26698 42.4623 7.87215C42.507 7.65318 42.5462 7.43309 42.5808 7.2119C42.5439 8.14532 42.3885 9.07543 42.1594 9.98673C41.919 10.9378 41.6004 11.8724 41.227 12.7837C40.8535 13.6961 40.4287 14.5875 39.9625 15.459C39.0301 17.2019 37.9457 18.8642 36.7561 20.4468C35.5644 22.0294 34.2653 23.5313 32.87 24.9392C32.3088 25.5054 31.7297 26.0551 31.136 26.5881L29.6692 26.9354C29.487 26.9918 29.4501 27.2307 29.6077 27.3391L29.9934 27.5758C29.8514 27.6941 29.7083 27.8124 29.563 27.9308L28.4003 28.873C26.8452 30.1228 25.2677 31.3426 23.6522 32.5072C22.0378 33.6718 20.3832 34.7799 18.6705 35.7775C17.813 36.2729 16.9409 36.7419 16.0488 37.161C15.6038 37.3723 15.1521 37.5669 14.6971 37.7516C14.241 37.9319 13.7815 38.0989 13.3175 38.2471L13.3108 38.2493C13.3097 38.2493 13.3086 38.2504 13.3075 38.2504C13.047 38.3378 12.9083 38.6165 12.9956 38.873C13.0839 39.1307 13.3656 39.2679 13.625 39.1816C14.1147 39.0179 14.5954 38.8365 15.0683 38.6419C15.5401 38.4428 16.0063 38.2338 16.4635 38.0093C17.3792 37.5625 18.2669 37.0703 19.1355 36.5516C20.8706 35.5098 22.5297 34.3641 24.1441 33.1663C25.7585 31.9686 27.3293 30.7189 28.8743 29.4426L30.0281 28.4804C30.1924 28.3433 30.3579 28.2028 30.5222 28.0613L30.7939 28.4793C30.8968 28.6386 31.1394 28.6098 31.2031 28.4318L31.7118 27.004C32.273 26.4842 32.8186 25.9489 33.3496 25.4004C34.7482 23.9538 36.0473 22.4143 37.2346 20.7963C38.4208 19.1772 39.4997 17.4784 40.4242 15.6979C40.8871 14.8076 41.3075 13.8952 41.6775 12.9617C42.0476 12.0283 42.3606 11.0706 42.5954 10.0918C42.8279 9.11192 42.9822 8.10993 42.9978 7.09688Z" fill="#F7931E"/>
<path d="M1.75513 27.9529C2.05922 27.9794 2.32642 27.7571 2.35325 27.4563C2.38008 27.1555 2.15537 26.8912 1.85127 26.8646C1.54718 26.8381 1.27998 27.0604 1.25315 27.3612C1.22632 27.6609 1.45103 27.9264 1.75513 27.9529Z" fill="#F7931E"/>
<path d="M11.3477 40C11.6206 40 11.8418 39.7811 11.8418 39.5112C11.8418 39.2412 11.6206 39.0223 11.3477 39.0223C11.0748 39.0223 10.8535 39.2412 10.8535 39.5112C10.8535 39.7811 11.0748 40 11.3477 40Z" fill="#F7931E"/>
<path d="M2.92029 17.7649C2.92029 17.7704 2.91917 17.7748 2.91917 17.7804C2.4921 24.6472 5.96568 30.9025 11.4908 34.3718C12.099 34.7534 12.857 34.8264 13.5277 34.5631C14.2052 34.2977 14.8805 34.0069 15.5502 33.695C16.8549 33.0889 18.1417 32.4076 19.4028 31.67C21.9261 30.1924 24.3487 28.4893 26.6473 26.6257C28.9481 24.7589 30.937 22.6864 32.9326 20.5154C34.9215 18.3433 36.7427 16.0142 38.1827 13.528C38.1984 13.5014 38.2129 13.4749 38.2285 13.4484C38.5785 12.8345 38.6098 12.0914 38.3202 11.4477C35.6695 5.56846 29.9577 1.24972 23.015 0.649192C15.6989 0.0165882 9.00437 3.68281 5.48271 9.53329C4.10088 11.8292 3.20649 14.4603 2.95606 17.3004C2.95606 17.3037 2.95606 17.3081 2.95494 17.3114C2.95494 17.3148 2.95383 17.3192 2.95383 17.3225C2.94041 17.4696 2.92923 17.6178 2.92029 17.7649Z" fill="#F7931E"/>
<path d="M39.1598 20.2433C38.3437 21.4399 37.4739 22.5946 36.5661 23.7138C34.5537 26.1867 32.2283 28.1398 29.8817 30.2898C27.5305 32.4408 24.7412 34.3508 22.0546 36.148C21.8635 36.2752 21.6723 36.4023 21.4789 36.5273C21.1625 36.733 21.3156 37.2152 21.6935 37.2108C31.0723 37.0759 39.0111 29.937 39.8463 20.4933C39.8463 20.4888 39.8474 20.4844 39.8474 20.4789C39.8809 20.0973 39.3767 19.9259 39.1598 20.2433Z" fill="#F7931E"/>
</g>
<defs>
<clipPath id="clip0_548_555">
<rect width="43" height="40" fill="white"/>
</clipPath>
</defs>
</svg>
