<svg width="21" height="22" viewBox="0 0 21 22" fill="none" xmlns="http://www.w3.org/2000/svg">
<path fill-rule="evenodd" clip-rule="evenodd" d="M5.67565 7.16048C6.1069 7.16048 6.4569 7.51048 6.4569 7.94173C6.4569 8.37298 6.1069 8.72298 5.67565 8.72298H4.70378C3.01732 8.72298 1.64648 10.0938 1.64648 11.7792V16.8574C1.64648 18.5438 3.01732 19.9146 4.70378 19.9146H16.2975C17.9829 19.9146 19.3548 18.5438 19.3548 16.8574V11.7699C19.3548 10.0896 17.9882 8.72298 16.309 8.72298H15.3267C14.8954 8.72298 14.5454 8.37298 14.5454 7.94173C14.5454 7.51048 14.8954 7.16048 15.3267 7.16048H16.309C18.8496 7.16048 20.9173 9.22819 20.9173 11.7699V16.8574C20.9173 19.4053 18.8444 21.4771 16.2975 21.4771H4.70378C2.1569 21.4771 0.0839844 19.4053 0.0839844 16.8574V11.7792C0.0839844 9.23236 2.1569 7.16048 4.70378 7.16048H5.67565ZM11.0534 0.314233L14.0909 3.36423C14.395 3.67048 14.394 4.16423 14.0888 4.4684C13.7825 4.77257 13.2888 4.77257 12.9846 4.46632L11.2809 2.75668L11.2815 14.1885H9.71899L9.71836 2.75668L8.0169 4.46632C7.86482 4.62048 7.66378 4.69652 7.46378 4.69652C7.26482 4.69652 7.06482 4.62048 6.91273 4.4684C6.60753 4.16423 6.60544 3.67048 6.91065 3.36423L9.94711 0.314233C10.2398 0.0194417 10.7607 0.0194417 11.0534 0.314233Z" fill="black"/>
</svg>
